# xmcd CD database file
#
# Track frame offsets:
#	180
#	12773
#	23507
#	35254
#	42945
#	57470
#	68684
#	78344
#	90870
#	103028
#	115335
#	127334
#	139492
#	151442
#	164013
#	175613
#	187755
#	203328
#	215035
#	229673
#	241378
#	254028
#	267457
#	280054
#	292621
#	304846
#
# Disc length: 4224 seconds
#
# Revision: 0
# Processed by: cddbd v1.5.2PL0 Copyright (c) Steve Scherf et al.
# Submitted via: CDex 1.51
#
DISCID=68107e1a
DTITLE=Country Trail - CD 8
DYEAR=1900
DGENRE=Country
TTITLE0=Tex Ritter - Jingel Jangel Jingel
TTITLE1=Bob Wills - Cowboy Stump
TTITLE2=Monn Mullican - Aint get no Grindin
TTITLE3=Gene Autry - Ride tenderfoot Ride
TTITLE4=Tennessie Ernie Ford - The cry of the Wilde Goose
TTITLE5=Cotton Thompson - How long
TTITLE6=Bob Wills - Get along Home Cindy
TTITLE7=Sons of the Pioneers - Song of the Bandit
TTITLE8=Molly O´day - Poor Ellen Smith
TTITLE9=Woody Gutrie - Dust Pneumonia Blues
TTITLE10=Bob Wills - Take me back to Tulsa
TTITLE11=Hank Williams - Lost Highway
TTITLE12=Billy Hughes - Cocain Blues
TTITLE13=Lone Star Playboys - Banjo Boogie
TTITLE14=Pee Wee King - Bull fiddel Buggie
TTITLE15=Roy Acuff - Blue Eyes crainig in the Rain
TTITLE16=Jimmy Rodgers - Mississippi Blues
TTITLE17=Dixie Ramblers - He´s an Army Man
TTITLE18=Kelly Harrell - My name is John Jo Hannah
TTITLE19=Tennessie Ernie Ford - I´ll never be free
TTITLE20=Hank Williams - I just dont like this kind of Living
TTITLE21=Ocie Stockard - O.P.A.Blues
TTITLE22=Paul Howard - Rootie Tootie
TTITLE23=Jimmy Wakely - One has my Name
TTITLE24=Lester Flatt and Earl Scruggs - Don´t get above your Raisin
TTITLE25=Jimmy Widener - Shuffeltowen
EXTD=
EXTT0=
EXTT1=
EXTT2=
EXTT3=
EXTT4=
EXTT5=
EXTT6=
EXTT7=
EXTT8=
EXTT9=
EXTT10=
EXTT11=
EXTT12=
EXTT13=
EXTT14=
EXTT15=
EXTT16=
EXTT17=
EXTT18=
EXTT19=
EXTT20=
EXTT21=
EXTT22=
EXTT23=
EXTT24=
EXTT25=
PLAYORDER=
